<?xml version="1.0" standalone="no"?>
<!DOCTYPE svg PUBLIC "-//W3C//DTD SVG 20010904//EN"
 "http://www.w3.org/TR/2001/REC-SVG-20010904/DTD/svg10.dtd">
<svg version="1.0" xmlns="http://www.w3.org/2000/svg"
 width="1024.000000pt" height="1024.000000pt" viewBox="0 0 1024.000000 1024.000000"
 preserveAspectRatio="xMidYMid meet">

<g transform="translate(0.000000,1024.000000) scale(0.100000,-0.100000)"
fill="#000000" stroke="none">
<path d="M0 9754 c0 -454 1 -486 17 -473 15 13 15 12 0 -11 -14 -22 -16 -96
-16 -719 l-1 -694 21 19 c11 10 17 24 14 31 -2 8 0 11 5 8 6 -3 10 -1 10 5 0
7 11 25 25 42 14 16 25 25 25 20 0 -5 -7 -15 -15 -22 -9 -7 -13 -15 -10 -18 3
-3 15 3 27 14 13 10 -5 -11 -39 -47 l-63 -65 0 -3922 0 -3922 5120 0 5120 0 0
5120 0 5120 -5120 0 -5120 0 0 -486z m670 387 c-5 -11 -15 -23 -21 -27 -6 -3
-3 5 6 20 20 30 30 35 15 7z m-60 -80 c-29 -42 -36 -39 -8 3 13 19 24 33 26
31 3 -2 -6 -18 -18 -34z m489 4 c-29 -49 -42 -54 -16 -5 12 22 25 40 29 40 4
0 -2 -16 -13 -35z m211 -19 c0 -2 -8 -10 -17 -17 -16 -13 -17 -12 -4 4 13 16
21 21 21 13z m-766 -73 c-52 -82 -67 -103 -71 -103 -5 0 -2 4 44 78 19 28 36
52 39 52 4 0 -2 -12 -12 -27z m704 -10 c-9 -10 -23 -33 -33 -51 -9 -19 -19
-32 -21 -29 -3 3 9 28 27 56 17 29 34 50 37 47 3 -3 -2 -14 -10 -23z m-238
-13 c0 -5 -5 -10 -11 -10 -5 0 -7 5 -4 10 3 6 8 10 11 10 2 0 4 -4 4 -10z
m-199 -47 c-12 -20 -14 -14 -5 12 4 9 9 14 11 11 3 -2 0 -13 -6 -23z m319 13
c0 -3 -4 -8 -10 -11 -5 -3 -10 -1 -10 4 0 6 5 11 10 11 6 0 10 -2 10 -4z
m-349 -78 c-11 -18 -21 -29 -21 -25 0 13 33 67 38 62 3 -2 -5 -19 -17 -37z
m50 19 c-10 -9 -11 -8 -5 6 3 10 9 15 12 12 3 -3 0 -11 -7 -18z m-427 -77
c-31 -44 -58 -80 -60 -80 -8 0 9 25 80 123 50 68 36 38 -20 -43z m533 58 c-3
-8 -6 -5 -6 6 -1 11 2 17 5 13 3 -3 4 -12 1 -19z m-46 -45 c-10 -21 -27 -47
-36 -58 -9 -11 -2 8 16 42 18 34 35 61 37 59 2 -2 -6 -21 -17 -43z m245 21
c-4 -9 -9 -15 -11 -12 -3 3 -3 13 1 22 4 9 9 15 11 12 3 -3 3 -13 -1 -22z
m-312 -70 c-48 -93 -75 -136 -81 -130 -3 3 4 17 14 33 11 15 37 61 58 101 21
40 39 71 41 69 2 -2 -12 -35 -32 -73z m87 -67 c-10 -9 -11 -8 -5 6 3 10 9 15
12 12 3 -3 0 -11 -7 -18z m-653 -90 c-17 -31 -33 -55 -35 -53 -2 2 11 28 29
59 17 31 33 55 35 53 2 -2 -11 -28 -29 -59z m730 33 c-7 -10 -14 -18 -15 -16
-6 6 9 36 18 36 5 0 4 -9 -3 -20z m-77 -13 c-10 -9 -11 -8 -5 6 3 10 9 15 12
12 3 -3 0 -11 -7 -18z m-183 -27 c-7 -10 -14 -17 -17 -15 -4 4 18 35 25 35 2
0 -1 -9 -8 -20z m197 -20 c-9 -16 -20 -30 -26 -30 -5 0 0 14 13 30 12 17 23
30 25 30 2 0 -3 -13 -12 -30z m36 7 c-10 -9 -11 -8 -5 6 3 10 9 15 12 12 3 -3
0 -11 -7 -18z m-840 -20 c-10 -9 -11 -8 -5 6 3 10 9 15 12 12 3 -3 0 -11 -7
-18z m752 8 c-3 -9 -8 -14 -10 -11 -3 3 -2 9 2 15 9 16 15 13 8 -4z m-688 -62
c-31 -49 -125 -171 -143 -185 -9 -7 -2 5 16 27 18 22 56 73 84 113 51 71 77
98 43 45z m444 -60 c-50 -80 -68 -102 -44 -53 21 44 78 130 83 125 2 -2 -16
-34 -39 -72z m2144 62 c-3 -9 -8 -14 -10 -11 -3 3 -2 9 2 15 9 16 15 13 8 -4z
m-2653 -23 c0 -5 -7 -17 -15 -28 -14 -18 -14 -17 -4 9 12 27 19 34 19 19z
m463 -37 c-9 -19 -18 -33 -21 -31 -4 5 26 66 33 66 3 0 -3 -16 -12 -35z m-513
-39 c0 -2 -8 -10 -17 -17 -16 -13 -17 -12 -4 4 13 16 21 21 21 13z m381 -19
c-10 -9 -11 -8 -5 6 3 10 9 15 12 12 3 -3 0 -11 -7 -18z m1584 -56 c-54 -69
-73 -83 -26 -19 17 22 28 46 24 52 -3 6 -3 8 2 4 5 -5 15 1 23 13 8 11 16 18
19 15 3 -3 -16 -32 -42 -65z m-1525 -31 c-23 -45 -43 -80 -46 -78 -2 3 6 27
19 54 37 79 58 116 63 111 2 -2 -14 -41 -36 -87z m120 70 c-6 -11 -13 -20 -16
-20 -2 0 0 9 6 20 6 11 13 20 16 20 2 0 0 -9 -6 -20z m180 11 c0 -5 -7 -11
-15 -15 -15 -5 -20 5 -8 17 9 10 23 9 23 -2z m-56 -66 c-9 -14 -18 -25 -20
-25 -2 0 2 11 8 25 6 14 15 25 20 25 5 0 1 -11 -8 -25z m6138 -1 c139 -47 221
-221 159 -341 -25 -50 -91 -110 -149 -135 -115 -51 -287 26 -308 137 l-6 35
-194 0 c-189 0 -194 0 -194 -21 0 -78 -135 -122 -211 -68 l-30 21 -132 -128
c-172 -169 -427 -430 -557 -572 l-103 -113 -4 -502 c-1 -275 -7 -505 -11 -509
-5 -5 -29 13 -54 40 -34 36 -44 52 -37 64 5 8 9 219 9 468 l1 453 -298 301
c-164 165 -342 345 -395 400 -92 94 -99 99 -116 83 -9 -9 -33 -23 -52 -30 -61
-26 -152 14 -165 73 l-6 27 -138 6 c-167 7 -192 2 -203 -40 -12 -45 -105 -127
-162 -143 -197 -55 -369 117 -312 311 40 139 176 210 318 167 60 -18 133 -89
156 -151 l20 -52 162 -3 162 -3 37 34 c22 19 54 37 75 41 74 14 156 -51 156
-125 0 -14 17 -37 46 -63 103 -91 575 -568 658 -663 57 -67 92 -100 100 -95 7
4 112 111 233 237 288 301 483 490 533 515 33 17 45 32 70 87 39 85 64 113
104 113 34 0 94 -32 102 -55 5 -13 38 -15 210 -15 155 0 205 3 208 13 2 6 9
31 15 55 33 121 176 190 303 146z m-6332 -14 c0 -5 -4 -10 -10 -10 -5 0 -10 5
-10 10 0 6 5 10 10 10 6 0 10 -4 10 -10z m44 -14 c-3 -9 -10 -13 -15 -10 -5 3
-3 11 4 19 15 16 19 13 11 -9z m1956 -65 c-33 -44 -65 -83 -72 -87 -13 -9 -2
8 70 99 75 93 76 84 2 -12z m-1925 28 c-9 -16 -21 -29 -28 -29 -8 0 -9 3 -1 8
6 4 14 20 18 35 4 15 11 25 16 22 6 -4 4 -18 -5 -36z m-265 11 c-6 -11 -13
-20 -16 -20 -2 0 0 9 6 20 6 11 13 20 16 20 2 0 0 -9 -6 -20z m310 -9 c-5 -11
-15 -23 -21 -27 -6 -3 -3 5 6 20 20 30 30 35 15 7z m-377 -48 c-14 -32 -32
-65 -40 -73 -13 -14 15 53 45 108 24 42 21 22 -5 -35z m410 42 c-3 -9 -8 -14
-10 -11 -3 3 -2 9 2 15 9 16 15 13 8 -4z m1257 1 c0 -2 -8 -10 -17 -17 -16
-13 -17 -12 -4 4 13 16 21 21 21 13z m-1419 -53 c-11 -21 -20 -35 -21 -31 0
12 33 78 38 74 2 -2 -6 -21 -17 -43z m-122 -5 c-41 -83 -124 -218 -136 -222
-7 -3 3 16 21 42 19 26 50 81 71 122 36 72 53 100 61 100 3 0 -5 -19 -17 -42z
m-98 -5 c-12 -20 -14 -14 -5 12 4 9 9 14 11 11 3 -2 0 -13 -6 -23z m15 -70
c-25 -49 -60 -104 -77 -123 -34 -38 -31 -28 11 35 15 22 44 70 64 108 54 97
55 83 2 -20z m122 60 c-9 -10 -25 -36 -36 -58 -12 -22 -21 -36 -22 -32 -1 21
54 107 68 107 3 0 -2 -8 -10 -17z m162 -23 c-6 -11 -13 -20 -16 -20 -2 0 0 9
6 20 6 11 13 20 16 20 2 0 0 -9 -6 -20z m791 -13 c-10 -9 -11 -8 -5 6 3 10 9
15 12 12 3 -3 0 -11 -7 -18z m-860 -10 c-10 -9 -11 -8 -5 6 3 10 9 15 12 12 3
-3 0 -11 -7 -18z m-78 -2 c-3 -9 -8 -14 -10 -11 -3 3 -2 9 2 15 9 16 15 13 8
-4z m117 -29 c0 -2 -7 -9 -15 -16 -13 -11 -14 -10 -9 4 5 14 24 23 24 12z
m-204 -54 c-18 -16 -18 -16 -6 6 6 13 14 21 18 18 3 -4 -2 -14 -12 -24z m154
-6 c0 -3 -4 -8 -10 -11 -5 -3 -10 -1 -10 4 0 6 5 11 10 11 6 0 10 -2 10 -4z
m-79 -39 c-10 -9 -11 -8 -5 6 3 10 9 15 12 12 3 -3 0 -11 -7 -18z m1905 -19
c-20 -24 -57 -72 -81 -108 -25 -36 -45 -59 -45 -51 0 15 71 117 116 168 43 48
52 40 10 -9z m-1957 5 c-14 -38 -50 -95 -56 -89 -2 2 6 21 20 43 13 21 26 46
30 56 3 9 9 17 11 17 3 0 1 -12 -5 -27z m101 23 c0 -6 -52 -96 -55 -96 -7 0
40 100 48 100 4 0 7 -2 7 -4z m-150 -36 c-6 -11 -12 -20 -14 -20 -2 0 -2 9 1
20 3 11 9 20 15 20 5 0 4 -9 -2 -20z m76 -28 c-8 -16 -22 -35 -32 -43 -10 -8
-5 4 11 29 32 48 42 55 21 14z m-166 5 c0 -2 -15 -16 -32 -33 l-33 -29 29 33
c28 30 36 37 36 29z m20 -38 c-7 -11 -14 -18 -17 -15 -3 3 0 12 7 21 18 21 23
19 10 -6z m1396 -11 c-9 -12 -16 -19 -16 -15 0 11 24 47 28 42 2 -2 -3 -14
-12 -27z m-1626 18 c0 -2 -8 -10 -17 -17 -16 -13 -17 -12 -4 4 13 16 21 21 21
13z m325 -74 l-28 -27 24 31 c13 17 26 30 28 27 3 -2 -8 -16 -24 -31z m-210
18 c-3 -5 -12 -10 -18 -10 -7 0 -6 4 3 10 19 12 23 12 15 0z m3957 -35 c3 3
31 -26 62 -64 38 -46 70 -74 95 -85 46 -18 171 -134 261 -242 36 -42 132 -148
214 -233 82 -86 158 -172 171 -191 22 -35 22 -37 13 -285 -4 -137 -6 -285 -2
-327 3 -43 3 -82 0 -87 -4 -5 -29 14 -57 42 l-50 50 5 101 c3 56 8 184 11 286
l6 185 -153 161 c-84 88 -197 211 -251 272 -54 61 -145 154 -202 207 -107 99
-143 152 -150 224 l-4 36 13 -28 c7 -15 15 -25 18 -22z m3270 18 c79 -31 158
-154 158 -244 0 -93 -69 -189 -164 -230 -122 -52 -280 18 -317 140 l-12 40
-391 -1 -391 -1 -75 -65 c-90 -78 -308 -304 -480 -496 l-125 -139 -6 -133 -6
-132 -43 -51 c-24 -28 -47 -51 -52 -51 -11 0 -9 127 5 287 l12 132 100 103
c55 57 118 123 139 148 80 93 369 382 422 421 30 22 58 47 61 56 5 13 54 15
382 13 207 -1 390 -2 407 -1 28 1 31 5 43 51 18 71 79 136 151 161 60 21 116
19 182 -8z m-7067 -2 c-3 -6 -11 -11 -17 -11 -6 0 -6 6 2 15 14 17 26 13 15
-4z m2704 3 c71 -21 146 -94 163 -158 l12 -46 369 0 369 0 77 -69 c181 -165
703 -707 702 -730 0 -9 -3 -82 -7 -163 -8 -163 -8 -162 -69 -90 -29 34 -30 37
-27 132 l3 96 -43 51 c-125 148 -234 263 -435 460 l-223 218 -354 0 -354 0
-12 -40 c-16 -55 -96 -129 -162 -151 -68 -22 -132 -15 -214 26 -60 29 -68 37
-92 89 -38 80 -38 174 0 252 35 70 64 97 130 120 66 23 100 23 167 3z m-2923
-62 c-18 -16 -18 -16 -6 6 6 13 14 21 18 18 3 -4 -2 -14 -12 -24z m6041 0 c17
-11 6 -23 -62 -69 -69 -48 -256 -230 -538 -525 l-198 -207 1 -323 1 -322 -43
-43 c-23 -24 -46 -43 -50 -43 -11 0 -10 748 1 768 22 40 556 568 656 648 144
116 194 140 232 116z m-6027 -53 c-7 -11 -14 -18 -17 -15 -3 3 0 12 7 21 18
21 23 19 10 -6z m155 -9 c3 -5 1 -10 -4 -10 -6 0 -11 5 -11 10 0 6 2 10 4 10
3 0 8 -4 11 -10z m1826 -33 c-10 -9 -11 -8 -5 6 3 10 9 15 12 12 3 -3 0 -11
-7 -18z m42 8 c-3 -9 -8 -14 -10 -11 -3 3 -2 9 2 15 9 16 15 13 8 -4z m-2053
1 c0 -2 -8 -10 -17 -17 -16 -13 -17 -12 -4 4 13 16 21 21 21 13z m980 0 c0 -2
-8 -10 -17 -17 -16 -13 -17 -12 -4 4 13 16 21 21 21 13z m-837 -51 c-13 -25
-27 -45 -29 -45 -2 0 6 20 18 45 12 25 25 45 29 45 4 0 -4 -20 -18 -45z m1137
31 c0 -2 -8 -10 -17 -17 -16 -13 -17 -12 -4 4 13 16 21 21 21 13z m-1250 -9
c0 -2 -10 -12 -21 -23 -22 -19 -22 -19 -8 4 12 19 29 30 29 19z m41 -15 c-5
-9 -19 -26 -32 -37 -17 -15 -15 -10 7 17 32 41 40 48 25 20z m17 -47 c-6 -14
-13 -23 -15 -21 -5 5 15 46 22 46 3 0 -1 -11 -7 -25z m1885 -6 c-10 -17 -39
-55 -64 -84 -26 -30 -69 -83 -95 -120 -98 -133 -237 -305 -243 -300 -4 5 33
56 72 98 14 15 23 27 20 27 -4 0 2 9 13 20 10 10 28 31 39 45 11 14 28 35 38
47 9 12 17 30 17 40 0 11 4 17 9 13 6 -3 28 20 49 52 22 32 54 72 72 88 17 17
41 47 53 68 11 20 25 37 29 37 5 0 1 -14 -9 -31z m-275 -11 c-2 -7 -11 -21
-20 -32 -10 -10 -15 -23 -12 -27 2 -4 -1 -11 -7 -15 -9 -5 -10 1 -5 22 9 37
51 86 44 52z m127 -28 c-9 -16 -18 -30 -21 -30 -2 0 2 14 11 30 9 17 18 30 21
30 2 0 -2 -13 -11 -30z m-211 -24 c-3 -9 -10 -16 -15 -16 -5 0 -4 9 3 20 14
22 21 20 12 -4z m-1552 -8 c-7 -7 -12 -8 -12 -2 0 14 12 26 19 19 2 -3 -1 -11
-7 -17z m1122 -10 c-44 -52 -54 -61 -54 -55 0 8 60 77 68 77 3 0 -3 -10 -14
-22z m126 -7 c-5 -11 -15 -23 -20 -26 -6 -4 -23 -25 -37 -48 -14 -23 -47 -67
-73 -97 -26 -30 -52 -64 -58 -75 -10 -17 -11 -17 -12 -3 0 9 5 20 10 23 6 4
21 24 35 44 13 21 29 44 37 52 7 8 36 44 63 81 47 64 78 91 55 49z m272 -23
c-7 -7 -12 -8 -12 -2 0 14 12 26 19 19 2 -3 -1 -11 -7 -17z m32 0 c-5 -7 -20
-31 -34 -53 -14 -22 -37 -61 -50 -87 -14 -26 -26 -45 -28 -44 -6 7 55 124 84
160 29 36 42 47 28 24z m-1574 -1 c0 -2 -10 -12 -22 -23 l-23 -19 19 23 c18
21 26 27 26 19z m1672 -49 c-15 -24 -47 -76 -71 -115 -24 -40 -45 -73 -47 -73
-10 0 61 134 84 159 9 11 25 31 35 45 10 14 20 26 23 26 3 0 -8 -19 -24 -42z
m-931 9 c-10 -9 -11 -8 -5 6 3 10 9 15 12 12 3 -3 0 -11 -7 -18z m305 -35
l-29 -27 23 32 c13 18 26 30 29 28 3 -3 -8 -18 -23 -33z m524 18 c-6 -11 -13
-20 -16 -20 -2 0 0 9 6 20 6 11 13 20 16 20 2 0 0 -9 -6 -20z m-1630 -14 c0
-2 -8 -10 -17 -17 -16 -13 -17 -12 -4 4 13 16 21 21 21 13z m1160 1 c0 -2 -19
-21 -42 -42 l-43 -40 40 43 c36 39 45 47 45 39z m-406 -47 c-15 -22 -29 -40
-31 -40 -5 0 3 15 29 53 30 43 31 32 2 -13z m294 -20 c-22 -30 -35 -41 -22
-17 9 16 36 47 41 47 2 0 -6 -13 -19 -30z m557 -49 c-21 -43 -29 -39 -8 4 9
19 18 33 21 31 2 -2 -4 -18 -13 -35z m-125 -30 c-5 -11 -15 -32 -20 -47 -6
-15 -13 -24 -16 -21 -6 5 33 87 42 87 2 0 0 -9 -6 -19z m-477 -16 c-3 -9 -8
-14 -10 -11 -3 3 -2 9 2 15 9 16 15 13 8 -4z m565 -20 c-6 -14 -13 -23 -15
-21 -5 5 15 46 22 46 3 0 -1 -11 -7 -25z m-146 -7 c-7 -7 -12 -8 -12 -2 0 14
12 26 19 19 2 -3 -1 -11 -7 -17z m-355 -80 c-28 -37 -55 -68 -59 -68 -5 0 -8
-6 -8 -12 -1 -13 -65 -88 -75 -88 -13 0 -2 22 29 57 19 21 53 58 75 83 23 25
46 57 53 71 6 14 17 26 24 26 6 0 -11 -31 -39 -69z m297 -15 c-81 -124 -122
-189 -132 -208 -6 -11 -12 -15 -12 -8 0 21 169 287 178 278 2 -2 -14 -29 -34
-62z m169 40 c-10 -16 -20 -30 -23 -33 -3 -3 -17 -31 -31 -62 -13 -32 -32 -68
-42 -80 -9 -13 -4 5 13 39 16 34 30 66 30 70 0 10 59 93 66 93 2 0 -3 -12 -13
-27z m-583 13 c0 -2 -8 -10 -17 -17 -16 -13 -17 -12 -4 4 13 16 21 21 21 13z
m466 -41 c-36 -47 -41 -44 -9 5 15 22 29 38 31 35 3 -2 -7 -20 -22 -40z m39
-22 c-18 -42 -25 -52 -25 -34 0 14 28 71 35 71 3 0 -2 -17 -10 -37z m-565 -3
c0 -5 -2 -10 -4 -10 -3 0 -8 5 -11 10 -3 6 -1 10 4 10 6 0 11 -4 11 -10z m672
-75 c-11 -13 -22 -22 -25 -18 -4 3 4 18 16 33 27 33 36 20 9 -15z m5473 20
c306 -62 535 -183 746 -394 227 -228 375 -515 440 -851 11 -58 22 -115 25
-128 4 -18 9 -21 29 -16 13 3 48 -2 77 -11 98 -32 269 -107 266 -117 -5 -13
-43 -28 -160 -64 -48 -14 -98 -35 -110 -46 -15 -13 -34 -18 -57 -16 l-35 3
-31 -161 c-41 -205 -71 -300 -145 -449 -199 -402 -567 -690 -1012 -792 -114
-26 -411 -23 -544 5 -275 59 -465 152 -694 339 -73 60 -332 318 -440 438 -29
33 -112 121 -184 196 -169 174 -389 409 -451 479 -155 177 -721 760 -804 830
-128 107 -219 153 -390 196 -285 73 -632 -19 -855 -226 -64 -59 -159 -187
-202 -271 -18 -37 -48 -113 -66 -170 -32 -103 -32 -106 -32 -314 -1 -200 0
-215 27 -306 15 -53 48 -141 73 -195 43 -91 46 -100 32 -124 -10 -18 -23 -26
-51 -28 -20 -2 -37 -8 -37 -13 0 -6 -4 -7 -10 -4 -5 3 -10 2 -10 -3 0 -32
-120 -41 -235 -17 -38 8 -86 15 -105 15 -19 0 -40 4 -46 8 -46 30 -125 295
-148 494 -9 72 -20 136 -26 143 -6 7 -31 15 -55 17 l-45 3 -6 -43 c-4 -24 -3
-82 0 -130 7 -87 7 -87 -24 -121 -21 -24 -28 -41 -24 -55 4 -15 3 -17 -4 -8
-7 10 -16 2 -36 -32 -14 -25 -31 -48 -36 -51 -6 -3 -1 9 10 27 11 19 21 43 23
53 1 11 6 26 11 33 12 19 -2 28 -17 11 -6 -8 -21 -21 -32 -29 -20 -15 -20 -14
-1 8 11 12 24 31 30 41 6 10 17 29 25 42 l14 24 -24 -20 c-32 -27 -69 -68 -69
-77 0 -5 -4 -8 -10 -8 -5 0 4 23 21 51 17 27 29 53 25 56 -7 8 -5 11 -55 -61
-47 -67 -53 -64 -15 7 37 71 24 78 -20 12 -20 -31 -40 -54 -43 -51 -3 3 6 23
20 45 14 21 33 56 41 76 14 33 14 36 1 25 -8 -7 -15 -17 -15 -22 0 -5 -6 -15
-13 -22 -13 -14 -43 -53 -57 -76 -5 -8 -12 -11 -16 -7 -4 4 3 19 17 33 15 17
20 28 12 31 -8 3 -6 14 7 36 10 18 21 43 25 57 6 23 4 22 -20 -7 -15 -18 -31
-33 -36 -33 -5 0 -3 15 6 33 l15 32 -22 -29 c-13 -17 -38 -46 -56 -65 l-33
-36 36 58 c20 32 34 61 32 64 -3 3 -26 -24 -51 -59 -72 -100 -78 -106 -51 -54
14 27 22 52 19 55 -4 3 -9 0 -11 -7 -3 -6 -9 -9 -14 -6 -6 3 -3 17 7 32 l17
27 -23 -20 c-21 -18 -23 -18 -17 -2 4 11 3 16 -3 12 -6 -3 -10 -12 -10 -18 0
-13 -39 -67 -40 -54 0 12 44 91 53 95 4 2 4 8 1 13 -3 6 -16 -2 -29 -17 l-23
-26 5 28 c5 28 5 28 -10 9 -20 -26 -32 -14 -17 17 l12 23 -20 -21 c-11 -11
-27 -35 -36 -52 -18 -35 -54 -72 -70 -72 -6 0 -2 8 9 16 13 11 16 18 8 21 -9
3 -6 14 9 38 12 18 28 31 35 28 7 -3 13 0 13 7 0 6 -4 8 -10 5 -5 -3 -10 0
-10 7 0 7 -13 -3 -30 -22 l-30 -35 26 60 c24 55 16 66 -10 14 -6 -12 -17 -24
-25 -27 -8 -3 -11 0 -7 7 4 6 2 11 -3 11 -6 0 -11 -6 -11 -14 0 -7 -6 -19 -14
-25 -12 -10 -12 -7 -2 22 6 18 19 45 29 61 10 15 17 30 14 32 -2 3 -18 -17
-36 -43 -17 -27 -31 -40 -31 -31 0 9 4 20 10 23 5 3 10 16 9 28 l0 22 -9 -22
c-11 -27 -22 -31 -14 -5 5 14 3 14 -10 -2 -9 -11 -16 -25 -16 -32 0 -7 -5 -16
-12 -20 -8 -5 -9 0 -4 17 4 13 9 39 11 57 3 28 1 31 -11 21 -11 -9 -14 -9 -14
2 0 8 -8 4 -20 -9 -26 -28 -33 -28 -25 1 6 20 5 21 -8 5 -8 -10 -17 -18 -20
-18 -4 0 -4 8 -1 18 5 16 5 16 -6 0 -16 -25 -33 -23 -20 2 18 33 -6 23 -30
-12 -20 -30 -20 -24 -2 22 5 13 3 13 -11 1 -9 -7 -17 -10 -17 -5 0 5 -7 1 -15
-10 -8 -10 -20 -16 -28 -13 -8 3 -20 0 -26 -6 -14 -14 -14 -2 0 26 10 18 7 17
-14 -5 -26 -28 -44 -38 -32 -18 3 6 -1 13 -9 16 -9 3 -16 10 -16 16 0 5 4 7 9
4 5 -3 15 2 22 12 13 16 13 16 -5 2 -18 -14 -19 -13 -13 5 6 19 6 19 -6 2 -7
-10 -18 -26 -25 -35 -11 -14 -11 -13 -2 7 8 16 9 26 2 30 -7 4 -8 12 -2 21 7
11 10 12 10 2 0 -7 5 -10 10 -7 17 10 -8 35 -28 28 -14 -5 -15 -4 -4 8 10 11
17 11 31 2 17 -10 21 -8 32 19 12 30 12 30 24 7 9 -16 14 -18 18 -8 5 12 7 12
16 -1 12 -17 14 -10 5 14 -4 11 -10 13 -18 7 -8 -7 -12 -4 -12 9 0 10 3 17 6
15 4 -2 13 5 20 16 8 10 19 19 24 19 6 0 5 -5 -2 -12 -7 -7 -12 -21 -12 -32 1
-17 5 -13 21 14 l20 35 -6 -35 c-5 -31 -1 -27 29 30 41 75 44 76 16 1 -12 -29
-19 -55 -17 -57 2 -2 16 21 32 51 28 56 42 72 30 34 -12 -37 11 -12 60 66 27
41 50 74 52 72 4 -5 -44 -95 -63 -117 -12 -15 -36 -90 -28 -90 2 0 13 19 25
43 24 46 102 152 122 164 6 4 0 -7 -15 -25 -15 -17 -30 -42 -34 -54 -4 -13
-15 -30 -24 -38 -9 -8 -21 -26 -25 -40 -4 -14 -15 -34 -24 -45 -10 -13 -7 -12
12 4 15 14 27 30 27 38 0 7 3 13 8 13 4 0 20 18 36 40 34 45 45 46 22 1 -22
-42 -20 -62 3 -27 11 17 18 32 16 36 -2 3 5 16 14 29 20 26 41 21 41 -10 0
-30 18 -13 37 32 8 22 17 38 19 36 3 -2 -3 -21 -11 -42 -9 -20 -14 -39 -11
-42 2 -2 7 4 10 14 10 31 56 89 56 71 0 -9 -4 -20 -10 -23 -5 -3 -10 -13 -10
-21 0 -27 15 -14 37 34 35 76 55 94 27 23 -14 -35 -23 -65 -21 -68 7 -6 47 62
47 81 0 9 4 16 9 16 5 0 17 23 27 50 10 28 22 50 26 50 13 0 9 -17 -17 -67
-14 -26 -27 -54 -28 -63 -2 -8 -6 -21 -10 -27 -11 -18 -1 -16 18 4 14 14 18
14 27 2 8 -12 9 -12 5 1 -2 8 17 40 42 70 50 59 58 71 95 140 53 98 97 174 91
155 -4 -11 -9 -29 -12 -40 -4 -20 -4 -20 11 -1 9 11 16 15 16 9 0 -6 -9 -22
-20 -36 -11 -14 -20 -29 -20 -34 0 -12 -60 -123 -66 -123 -3 0 -2 10 1 21 5
13 3 19 -3 15 -5 -3 -12 -15 -15 -26 -3 -11 -1 -18 4 -14 15 9 10 -13 -6 -26
-8 -7 -15 -18 -15 -24 1 -15 36 30 62 79 11 22 24 42 28 45 3 3 18 25 33 50
15 25 27 38 27 30 1 -8 9 1 20 20 12 22 19 29 20 17 0 -9 -14 -31 -30 -49 -17
-17 -30 -34 -30 -39 0 -4 -10 -20 -23 -36 -26 -32 -52 -87 -37 -78 6 3 18 21
27 38 9 18 35 55 58 82 23 28 68 90 100 138 61 91 109 146 62 70 -15 -24 -27
-44 -27 -47 0 -2 -16 -27 -35 -56 -34 -50 -51 -98 -19 -52 8 12 19 20 24 17 5
-3 12 0 16 6 4 8 3 9 -4 5 -20 -12 -14 2 21 46 17 24 46 64 62 90 28 45 45 60
45 39 0 -5 -11 -22 -24 -38 -13 -15 -41 -60 -62 -98 -21 -39 -60 -103 -86
-144 -51 -80 -61 -104 -28 -71 11 11 20 22 20 25 0 3 8 18 18 33 58 85 102
153 126 195 15 27 30 47 32 44 5 -4 -53 -115 -72 -137 -11 -13 -9 -15 12 -15
13 0 22 5 20 10 -2 6 3 16 10 23 18 16 19 21 -17 -83 -17 -50 -32 -97 -34
-105 -4 -23 -14 -100 -19 -150 -3 -25 -8 -71 -11 -102 -4 -32 -4 -66 -1 -76 6
-18 9 -18 55 4 l48 23 23 118 c47 246 92 380 187 547 175 309 507 572 844 670
173 51 244 59 441 54 153 -5 187 -9 293 -37 194 -51 369 -147 580 -316 83 -66
612 -599 805 -810 45 -49 159 -175 253 -279 399 -440 750 -800 862 -883 131
-99 294 -168 449 -194 96 -15 320 -7 401 15 266 72 467 241 593 498 151 310
146 685 -14 973 -64 115 -102 165 -194 253 -230 223 -594 292 -934 178 -201
-68 -310 -145 -530 -377 -55 -57 -134 -140 -176 -184 -42 -44 -104 -113 -139
-152 -35 -40 -81 -87 -103 -104 l-39 -32 -32 39 c-52 64 -256 287 -289 316
-29 25 -30 28 -16 50 35 51 660 669 748 739 152 121 310 206 490 264 180 59
452 71 655 30z m-6182 -10 c-3 -9 -8 -14 -10 -11 -3 3 -2 9 2 15 9 16 15 13 8
-4z m650 0 c-3 -9 -8 -14 -10 -11 -3 3 -2 9 2 15 9 16 15 13 8 -4z m-309 -20
c-9 -14 -18 -25 -21 -25 -5 0 5 18 20 38 17 22 18 13 1 -13z m-739 -32 c-39
-52 -89 -109 -84 -97 7 18 104 142 108 138 2 -2 -9 -20 -24 -41z m695 43 c0
-2 -8 -10 -17 -17 -16 -13 -17 -12 -4 4 13 16 21 21 21 13z m179 -63 c-12 -21
-27 -42 -32 -48 -11 -11 9 29 31 63 24 37 25 25 1 -15z m51 16 c-7 -11 -14
-18 -17 -15 -3 3 0 12 7 21 18 21 23 19 10 -6z m153 -5 c-4 -12 -8 -13 -14 -3
-9 15 -2 32 11 24 5 -3 6 -13 3 -21z m-693 12 c0 -3 -4 -8 -10 -11 -5 -3 -10
-1 -10 4 0 6 5 11 10 11 6 0 10 -2 10 -4z m633 -18 c-3 -13 -9 -27 -13 -33
-10 -13 -23 -75 -16 -75 3 0 19 25 34 56 21 42 30 52 35 40 4 -9 2 -16 -3 -16
-6 0 -10 -5 -10 -10 0 -6 -12 -29 -27 -51 -17 -26 -29 -36 -34 -28 -5 8 -12 2
-22 -17 -9 -16 -34 -49 -56 -74 -23 -25 -71 -88 -108 -140 -69 -99 -190 -247
-238 -290 -15 -14 -57 -69 -92 -123 -35 -55 -94 -133 -130 -175 -88 -103 -83
-98 -83 -84 0 6 30 46 68 89 102 118 143 176 110 157 -7 -4 -5 1 4 12 10 10
37 44 61 74 24 30 55 68 70 84 15 16 26 35 23 42 -3 8 0 11 8 8 8 -3 26 15 46
45 17 28 36 51 41 51 5 0 9 7 9 15 0 8 11 22 25 31 14 9 25 21 25 26 0 9 20
36 72 98 7 8 13 22 13 30 0 8 5 15 12 15 16 0 53 44 48 58 -3 7 4 23 15 37 16
20 19 21 14 5 -4 -11 -12 -27 -18 -35 -9 -13 -9 -13 6 -2 20 16 78 104 78 119
0 13 29 83 34 83 2 0 2 -10 -1 -22z m998 -11 c-10 -9 -11 -8 -5 6 3 10 9 15
12 12 3 -3 0 -11 -7 -18z m-1571 -37 c-12 -16 -24 -30 -26 -30 -3 0 3 14 13
30 9 17 21 30 26 30 5 0 -1 -13 -13 -30z m444 -2 c-19 -38 -114 -178 -121
-178 -5 0 -4 1 71 118 60 94 79 117 50 60z m17 -35 c-17 -32 -42 -71 -56 -88
-14 -16 -3 8 25 54 27 46 50 89 50 94 0 6 3 8 6 4 3 -3 -8 -32 -25 -64z m-710
34 c-10 -9 -11 -8 -5 6 3 10 9 15 12 12 3 -3 0 -11 -7 -18z m159 13 c0 -5 -5
-10 -11 -10 -5 0 -7 5 -4 10 3 6 8 10 11 10 2 0 4 -4 4 -10z m393 -5 c-3 -9
-8 -14 -10 -11 -3 3 -2 9 2 15 9 16 15 13 8 -4z m-145 -21 c-11 -11 -18 -12
-22 -5 -4 6 0 11 8 11 9 0 16 5 16 12 0 6 3 8 7 4 4 -3 0 -14 -9 -22z m-303 6
c-3 -5 -11 -10 -16 -10 -6 0 -7 5 -4 10 3 6 11 10 16 10 6 0 7 -4 4 -10z m403
-31 c-13 -17 -31 -43 -40 -57 -10 -15 -18 -22 -18 -17 0 12 25 51 53 83 29 32
32 27 5 -9z m-358 12 c0 -6 -4 -13 -10 -16 -5 -3 -10 1 -10 9 0 9 5 16 10 16
6 0 10 -4 10 -9z m190 -21 c-6 -12 -14 -20 -17 -17 -2 3 1 14 8 26 17 26 24
19 9 -9z m290 11 c-5 -11 -15 -23 -21 -27 -6 -3 -3 5 6 20 20 30 30 35 15 7z
m-109 -30 c-25 -48 -166 -230 -230 -296 -27 -27 -72 -86 -101 -130 -61 -95
-67 -101 -47 -54 19 47 127 208 127 190 0 -21 25 4 40 39 7 16 16 28 20 25 9
-5 159 185 184 233 9 17 19 32 21 32 3 0 -3 -17 -14 -39z m-349 7 c-7 -7 -12
-8 -12 -2 0 14 12 26 19 19 2 -3 -1 -11 -7 -17z m39 4 c-5 -10 -18 -25 -27
-33 -11 -9 -9 -2 6 19 26 35 36 42 21 14z m179 14 c0 -2 -7 -6 -15 -10 -8 -3
-15 -1 -15 4 0 6 7 10 15 10 8 0 15 -2 15 -4z m-726 -75 c-26 -34 -49 -61 -52
-61 -2 0 7 15 20 33 13 17 35 47 48 64 13 18 25 31 28 29 2 -2 -18 -32 -44
-65z m612 -28 c-8 -15 -15 -25 -16 -21 0 12 23 58 27 54 3 -2 -2 -17 -11 -33z
m297 22 c-3 -9 -8 -14 -10 -11 -3 3 -2 9 2 15 9 16 15 13 8 -4z m-155 -36
c-28 -41 -48 -63 -48 -54 0 11 63 95 68 91 2 -3 -7 -19 -20 -37z m-289 2 c-13
-16 -50 -61 -82 -100 -32 -39 -60 -71 -64 -71 -6 0 2 12 59 81 21 25 35 49 33
53 -3 3 -2 4 1 2 3 -3 19 11 36 30 37 41 50 46 17 5z m-158 -24 c-10 -9 -11
-8 -5 6 3 10 9 15 12 12 3 -3 0 -11 -7 -18z m-377 -29 c-16 -27 -78 -97 -82
-93 -3 2 15 27 39 54 44 51 56 61 43 39z m909 -44 c-15 -27 -31 -50 -35 -52
-4 -2 -8 -8 -8 -13 0 -6 6 -7 13 -3 8 5 8 3 -2 -9 -7 -9 -17 -14 -22 -11 -5 3
-8 1 -7 -5 2 -5 -25 -43 -59 -83 -95 -113 -105 -124 -97 -108 4 8 14 23 23 33
12 15 13 20 2 26 -9 6 -10 11 -2 15 6 4 11 2 11 -5 0 -6 10 1 22 17 13 16 26
31 30 32 5 2 8 9 8 16 0 7 9 21 19 30 11 10 43 53 72 97 58 87 74 99 32 23z
m-278 27 c-9 -8 -36 -10 -30 -2 2 4 11 8 20 8 8 0 13 -3 10 -6z m320 -21 c-16
-17 -30 -37 -31 -46 -1 -9 -5 -19 -8 -22 -4 -3 -5 4 -3 17 3 22 49 81 63 81 4
0 -5 -14 -21 -30z m-204 -13 c-10 -9 -11 -8 -5 6 3 10 9 15 12 12 3 -3 0 -11
-7 -18z m-142 -4 c-42 -55 -79 -91 -84 -83 -4 6 -1 10 5 10 6 0 8 5 4 12 -4 6
-3 8 3 5 6 -4 24 11 42 33 31 38 58 58 30 23z m2 -56 c-19 -18 -30 -25 -26
-17 13 25 48 60 54 55 3 -3 -10 -20 -28 -38z m51 -9 c-7 -7 -12 -8 -12 -2 0
14 12 26 19 19 2 -3 -1 -11 -7 -17z m-331 -90 c-28 -40 -80 -104 -117 -143
-36 -38 -61 -63 -55 -54 6 9 7 20 3 24 -4 5 -1 4 7 0 11 -6 13 -4 8 8 -3 9 -3
16 1 14 10 -3 108 107 157 176 22 31 41 54 43 52 2 -2 -19 -37 -47 -77z m460
55 c-23 -33 -81 -88 -81 -78 0 7 91 104 98 105 2 0 -6 -12 -17 -27z m-152 0
c-6 -7 -15 -10 -20 -7 -13 8 -3 21 15 21 12 0 13 -4 5 -14z m93 -10 c-24 -34
-62 -69 -62 -57 0 8 70 84 78 84 2 0 -5 -12 -16 -27z m-222 3 c0 -3 -4 -8 -10
-11 -5 -3 -10 -1 -10 4 0 6 5 11 10 11 6 0 10 -2 10 -4z m20 -20 c0 -2 -8 -10
-17 -17 -16 -13 -17 -12 -4 4 13 16 21 21 21 13z m1233 -21 c-3 -9 -8 -14 -10
-11 -3 3 -2 9 2 15 9 16 15 13 8 -4z m-1530 -10 c-3 -9 -8 -14 -10 -11 -3 3
-2 9 2 15 9 16 15 13 8 -4z m1354 -17 c-3 -8 -6 -5 -6 6 -1 11 2 17 5 13 3 -3
4 -12 1 -19z m-1154 -3 c-3 -9 -8 -14 -10 -11 -3 3 -2 9 2 15 9 16 15 13 8 -4z
m144 -19 c-12 -18 -23 -32 -25 -31 -6 6 29 65 38 65 5 0 -1 -15 -13 -34z
m-307 20 c0 -2 -8 -10 -17 -17 -16 -13 -17 -12 -4 4 13 16 21 21 21 13z m220
0 c0 -2 -8 -10 -17 -17 -16 -13 -17 -12 -4 4 13 16 21 21 21 13z m1133 -26
c-3 -12 -8 -19 -11 -16 -5 6 5 36 12 36 2 0 2 -9 -1 -20z m57 -51 c-16 -30
-30 -50 -30 -45 0 17 53 121 57 110 2 -5 -10 -35 -27 -65z m-1240 11 c-11 -16
-26 -33 -33 -37 -12 -7 0 11 32 50 23 28 24 20 1 -13z m249 -15 c-12 -19 -26
-38 -33 -42 -8 -5 -8 -3 0 8 5 8 18 26 27 42 25 40 30 33 6 -8z m-321 5 c-7
-10 -14 -17 -17 -15 -4 4 18 35 25 35 2 0 -1 -9 -8 -20z m292 6 c0 -2 -8 -10
-17 -17 -16 -13 -17 -12 -4 4 13 16 21 21 21 13z m886 -34 l-28 -27 12 25 c14
27 31 42 39 34 3 -2 -8 -17 -23 -32z m-1032 -39 c-16 -26 -51 -75 -79 -108
-28 -34 -75 -102 -104 -153 -30 -51 -55 -92 -58 -92 -2 0 -2 3 0 8 3 4 15 30
27 57 12 28 29 58 37 67 8 9 12 22 7 29 -4 8 -3 10 4 5 8 -4 16 3 23 21 10 27
69 105 99 131 12 11 13 12 0 6 -8 -5 3 13 24 39 21 26 41 45 43 43 3 -2 -8
-26 -23 -53z m526 53 c0 -3 -4 -8 -10 -11 -5 -3 -10 -1 -10 4 0 6 5 11 10 11
6 0 10 -2 10 -4z m555 -15 c-3 -6 -11 -11 -17 -11 -6 0 -6 6 2 15 14 17 26 13
15 -4z m98 -16 c-3 -9 -8 -14 -10 -11 -3 3 -2 9 2 15 9 16 15 13 8 -4z m-1623
-5 c0 -5 -5 -10 -11 -10 -5 0 -7 5 -4 10 3 6 8 10 11 10 2 0 4 -4 4 -10z m294
-37 c-38 -52 -49 -62 -34 -33 20 39 52 82 57 76 3 -2 -8 -22 -23 -43z m312 22
c-9 -9 -16 -13 -16 -8 0 12 22 34 28 28 2 -2 -3 -11 -12 -20z m225 2 c-10 -9
-11 -8 -5 6 3 10 9 15 12 12 3 -3 0 -11 -7 -18z m-576 -16 c-8 -17 -21 -33
-27 -37 -8 -5 -7 1 3 16 8 14 19 31 23 38 15 25 16 11 1 -17z m-45 -1 c-6 -11
-13 -20 -16 -20 -2 0 0 9 6 20 6 11 13 20 16 20 2 0 0 -9 -6 -20z m1233 -48
c-42 -74 -68 -105 -33 -40 17 32 28 63 24 69 -4 7 -3 9 4 5 6 -3 13 -2 17 4 3
5 8 10 11 10 2 0 -8 -22 -23 -48z m-530 23 c-3 -9 -8 -14 -10 -11 -3 3 -2 9 2
15 9 16 15 13 8 -4z m177 8 c0 -5 -14 -24 -31 -43 l-31 -35 24 42 c21 39 38
55 38 36z m-640 -24 c-7 -11 -14 -18 -17 -15 -3 3 0 12 7 21 18 21 23 19 10
-6z m680 17 c0 -2 -8 -10 -17 -17 -16 -13 -17 -12 -4 4 13 16 21 21 21 13z
m2085 -30 c45 -35 73 -79 81 -129 8 -45 28 -53 110 -42 l56 7 127 -131 127
-131 105 0 105 0 44 -45 c24 -24 42 -46 39 -48 -2 -3 -76 -7 -165 -11 l-161
-6 -80 93 c-45 51 -102 112 -127 135 -44 41 -47 42 -113 42 -67 0 -68 -1 -96
-39 -34 -48 -115 -91 -172 -91 -56 0 -120 36 -158 88 -26 36 -32 54 -35 111
-3 57 0 75 21 117 14 27 34 57 45 67 60 54 184 60 247 13z m-3188 -54 c-29
-37 -70 -92 -89 -122 -20 -30 -45 -64 -55 -75 -10 -11 -31 -38 -48 -60 -36
-49 -55 -69 -55 -58 0 4 23 37 50 73 27 36 82 110 122 165 40 55 81 109 90
119 10 11 18 24 18 28 0 5 4 6 10 3 5 -3 -14 -36 -43 -73z m517 61 c-5 -17 -5
-17 9 0 8 9 17 17 21 17 9 0 -73 -108 -128 -171 -64 -71 -75 -87 -68 -95 4 -4
2 -4 -5 -1 -6 4 -20 -7 -32 -26 -14 -21 -21 -26 -21 -15 0 9 20 38 45 65 25
26 45 53 45 61 0 7 5 10 10 7 10 -6 14 6 11 35 -1 11 0 12 7 2 6 -9 14 -6 32
13 13 14 20 25 17 25 -4 0 7 23 24 50 32 52 42 62 33 33z m5964 -2 c73 -38
132 -121 132 -186 0 -75 -63 -172 -131 -199 -53 -21 -127 -23 -166 -2 -34 17
-93 83 -93 103 0 9 -17 13 -52 13 -29 0 -70 3 -91 6 -37 7 -40 5 -108 -67 -38
-41 -93 -102 -121 -136 l-51 -63 -159 0 c-116 0 -158 3 -158 12 0 7 14 27 32
45 l32 33 105 0 106 0 58 69 c32 38 85 96 117 130 l58 61 105 0 104 0 7 39 c7
45 56 110 106 140 45 27 118 27 168 2z m-6300 -21 c-7 -10 -14 -17 -17 -15 -4
4 18 35 25 35 2 0 -1 -9 -8 -20z m285 3 c-8 -21 -53 -78 -53 -67 0 8 50 84 56
84 2 0 0 -8 -3 -17z m297 13 c0 -2 -8 -10 -17 -17 -16 -13 -17 -12 -4 4 13 16
21 21 21 13z m583 -21 c-3 -9 -8 -14 -10 -11 -3 3 -2 9 2 15 9 16 15 13 8 -4z
m-565 -15 c-7 -10 -14 -18 -15 -16 -6 6 9 36 18 36 5 0 4 -9 -3 -20z m40 -4
c-10 -7 -16 -15 -14 -17 2 -2 -2 -10 -10 -17 -8 -7 -14 -8 -14 -2 0 12 36 50
48 50 4 0 -1 -7 -10 -14z m153 -9 c-10 -9 -11 -8 -5 6 3 10 9 15 12 12 3 -3 0
-11 -7 -18z m-771 -1 c0 -2 -8 -10 -17 -17 -16 -13 -17 -12 -4 4 13 16 21 21
21 13z m1121 -23 c-12 -20 -14 -14 -5 12 4 9 9 14 11 11 3 -2 0 -13 -6 -23z
m-970 -16 c-10 -9 -11 -8 -5 6 3 10 9 15 12 12 3 -3 0 -11 -7 -18z m245 -5
c-18 -16 -18 -16 -6 6 6 13 14 21 18 18 3 -4 -2 -14 -12 -24z m114 -2 c-6 -12
-14 -20 -17 -17 -2 3 1 14 8 26 17 26 24 19 9 -9z m240 11 c-5 -11 -15 -23
-22 -27 -7 -5 -8 -2 -3 7 21 37 44 55 25 20z m201 -8 c-6 -10 -22 -31 -36 -48
-20 -23 -19 -18 6 18 32 46 49 63 30 30z m82 0 c-6 -18 -73 -143 -80 -153 -2
-2 -8 1 -12 9 -6 10 -10 9 -14 -4 -4 -9 -3 -13 3 -10 29 18 -15 -62 -79 -145
-30 -38 -34 -19 -5 21 14 19 40 67 59 107 19 39 36 72 39 72 3 0 3 -7 0 -15
-4 -8 -2 -15 2 -15 5 0 19 22 32 48 30 63 52 102 57 102 3 0 1 -8 -2 -17z
m-833 4 c0 -2 -10 -12 -22 -23 l-23 -19 19 23 c18 21 26 27 26 19z m779 -34
c-20 -37 -46 -70 -37 -48 14 35 43 85 50 85 4 0 -2 -17 -13 -37z m-434 19 c-6
-4 -16 -19 -24 -34 -8 -16 -16 -26 -18 -24 -8 8 28 66 40 66 7 0 8 -3 2 -8z
m-635 -27 c0 -1 -6 -7 -13 -13 -10 -8 -13 -6 -14 8 -1 13 3 17 13 13 8 -3 14
-6 14 -8z m481 0 c5 4 6 -2 2 -11 -4 -11 -8 -13 -11 -6 -2 7 -8 10 -13 6 -11
-6 -12 9 -2 20 4 4 9 2 11 -3 2 -6 8 -9 13 -6z m-810 -28 c-10 -9 -11 -8 -5 6
3 10 9 15 12 12 3 -3 0 -11 -7 -18z m890 0 c-10 -9 -11 -8 -5 6 3 10 9 15 12
12 3 -3 0 -11 -7 -18z m188 -9 c-7 -13 -20 -35 -31 -50 -11 -16 -17 -32 -14
-37 4 -5 -8 -36 -25 -68 -44 -79 -49 -84 -22 -16 5 12 3 14 -7 8 -9 -5 -11 -4
-6 4 4 6 12 8 18 5 8 -5 9 -1 5 10 -4 10 -3 15 3 11 5 -3 12 7 15 22 7 34 34
91 55 115 20 24 23 23 9 -4z m34 -8 c-3 -11 -9 -20 -15 -20 -5 0 -4 9 2 20 6
11 12 20 14 20 2 0 2 -9 -1 -20z m-244 -30 c-12 -16 -28 -31 -36 -34 -7 -3 -1
10 14 29 34 42 52 47 22 5z m-589 1 c-5 -11 -15 -23 -22 -27 -7 -5 -8 -2 -3 7
21 37 44 55 25 20z m616 -9 c-17 -16 -18 -16 -5 5 7 12 15 20 18 17 3 -2 -3
-12 -13 -22z m378 16 c-5 -8 -2 -9 11 -4 16 6 16 4 4 -10 -9 -11 -14 -13 -17
-4 -3 7 -12 0 -23 -17 -21 -31 -26 -25 -6 10 11 20 27 36 35 37 2 0 0 -5 -4
-12z m-903 -21 c-10 -9 -11 -8 -5 6 3 10 9 15 12 12 3 -3 0 -11 -7 -18z m940
-24 c-11 -21 -20 -33 -21 -26 0 13 33 73 38 68 2 -2 -6 -20 -17 -42z m-907 25
c-52 -85 -116 -178 -123 -178 -5 0 20 43 55 95 36 52 67 95 70 95 3 0 2 -6 -2
-12z m196 -38 c-30 -42 -36 -31 -8 12 13 20 24 31 26 27 2 -5 -6 -23 -18 -39z
m461 17 c-10 -9 -11 -8 -5 6 3 10 9 15 12 12 3 -3 0 -11 -7 -18z m49 9 c0 -3
-4 -8 -10 -11 -5 -3 -10 -1 -10 4 0 6 5 11 10 11 6 0 10 -2 10 -4z m160 -21
c-7 -9 -15 -13 -17 -11 -7 7 7 26 19 26 6 0 6 -6 -2 -15z m-1317 -30 c-15 -19
-29 -32 -32 -29 -4 4 48 64 56 64 2 0 -9 -16 -24 -35z m276 -5 c-12 -22 -24
-38 -26 -36 -4 4 37 76 44 76 2 0 -6 -18 -18 -40z m609 22 c14 10 15 10 5 -2
-18 -20 -43 -22 -35 -2 4 11 7 12 10 4 3 -10 7 -10 20 0z m128 -24 c-9 -12
-16 -19 -16 -15 0 11 24 47 28 42 2 -2 -3 -14 -12 -27z m112 7 c-6 -14 -13
-23 -15 -21 -5 5 15 46 22 46 3 0 -1 -11 -7 -25z m75 10 c-3 -9 -8 -14 -10
-11 -3 3 -2 9 2 15 9 16 15 13 8 -4z m47 0 c0 -8 -4 -15 -10 -15 -5 0 -7 7 -4
15 4 8 8 15 10 15 2 0 4 -7 4 -15z m41 -9 c5 3 9 1 9 -5 0 -5 -9 -9 -19 -8
-12 1 -17 6 -13 16 4 10 7 11 10 3 2 -7 8 -10 13 -6z m-318 -11 c-3 -9 -8 -14
-10 -11 -3 3 -2 9 2 15 9 16 15 13 8 -4z m-382 -22 c-12 -20 -14 -14 -5 12 4
9 9 14 11 11 3 -2 0 -13 -6 -23z m-160 -6 c-10 -9 -11 -8 -5 6 3 10 9 15 12
12 3 -3 0 -11 -7 -18z m415 -5 c-17 -16 -18 -16 -5 5 7 12 15 20 18 17 3 -2
-3 -12 -13 -22z m-326 -2 c-6 -11 -13 -20 -16 -20 -2 0 0 9 6 20 6 11 13 20
16 20 2 0 0 -9 -6 -20z m25 -20 c-9 -18 -19 -30 -21 -27 -3 2 3 18 13 35 23
40 29 33 8 -8z m733 20 c-7 -11 -16 -20 -20 -20 -5 0 -3 9 4 20 7 11 16 20 20
20 5 0 3 -9 -4 -20z m-1342 -18 c-18 -16 -18 -16 -6 6 6 13 14 21 18 18 3 -4
-2 -14 -12 -24z m1150 -10 c-17 -16 -18 -16 -5 5 7 12 15 20 18 17 3 -2 -3
-12 -13 -22z m-673 3 c-3 -9 -8 -14 -10 -11 -3 3 -2 9 2 15 9 16 15 13 8 -4z
m178 -51 c-49 -72 -45 -66 -107 -139 -28 -33 -75 -98 -104 -145 -29 -47 -80
-119 -114 -161 -33 -41 -69 -86 -79 -100 -48 -67 -46 -65 -47 -46 0 9 17 36
39 60 21 23 37 48 35 55 -1 7 0 8 3 2 6 -12 75 74 107 133 29 55 88 143 121
182 15 17 35 40 46 53 11 13 17 27 14 32 -3 6 0 7 8 4 8 -3 17 1 20 9 8 21 90
128 94 123 2 -2 -14 -30 -36 -62z m570 39 c-12 -20 -14 -14 -5 12 4 9 9 14 11
11 3 -2 0 -13 -6 -23z m50 -19 l-21 -27 2 26 c1 14 5 24 9 21 4 -2 10 4 14 14
5 11 9 13 12 5 3 -7 -5 -25 -16 -39z m-1231 32 c0 -2 -8 -10 -17 -17 -16 -13
-17 -12 -4 4 13 16 21 21 21 13z m1000 -14 c0 -4 -9 -15 -20 -25 -23 -19 -25
-15 -8 13 13 20 28 27 28 12z m-510 -45 c-11 -18 -32 -44 -47 -58 -14 -13 -22
-17 -18 -9 10 16 78 100 82 100 1 0 -6 -15 -17 -33z m-89 0 c-10 -9 -11 -8 -5
6 3 10 9 15 12 12 3 -3 0 -11 -7 -18z m240 0 c-10 -9 -11 -8 -5 6 3 10 9 15
12 12 3 -3 0 -11 -7 -18z m-641 -17 c-6 -11 -13 -20 -16 -20 -2 0 0 9 6 20 6
11 13 20 16 20 2 0 0 -9 -6 -20z m318 -10 c-25 -34 -24 -34 -34 -18 -4 7 -3 8
4 4 7 -4 12 -3 12 3 0 10 27 41 36 41 3 0 -5 -13 -18 -30z m-184 -20 c-10 -16
-20 -27 -22 -25 -5 5 26 55 34 55 3 0 -3 -13 -12 -30z m480 5 c-9 -14 -18 -25
-21 -25 -5 0 5 18 20 38 17 22 18 13 1 -13z m336 21 c0 -2 -8 -10 -17 -17 -16
-13 -17 -12 -4 4 13 16 21 21 21 13z m181 -29 c-5 -5 -17 -4 -28 2 -16 11 -16
11 4 6 19 -5 22 -3 17 12 -5 15 -4 15 5 3 6 -8 6 -19 2 -23z m-652 -22 c-13
-13 -28 -25 -33 -25 -6 0 3 13 19 30 16 16 31 28 33 25 3 -2 -6 -16 -19 -30z
m297 7 c-18 -16 -18 -16 -6 6 6 13 14 21 18 18 3 -4 -2 -14 -12 -24z m-144
-14 c-7 -7 -12 -8 -12 -2 0 14 12 26 19 19 2 -3 -1 -11 -7 -17z m284 -6 c-17
-16 -18 -16 -5 5 7 12 15 20 18 17 3 -2 -3 -12 -13 -22z m-975 -30 c-5 -10
-18 -25 -27 -33 -16 -12 -17 -12 -9 1 10 18 37 50 42 50 2 0 -1 -8 -6 -18z
m789 8 c0 -5 -5 -10 -11 -10 -5 0 -7 5 -4 10 3 6 8 10 11 10 2 0 4 -4 4 -10z
m2773 -15 c13 -8 38 -35 56 -60 l32 -45 172 -1 c95 0 269 -2 387 -4 l215 -3
45 -43 44 -43 -29 -9 c-17 -4 -206 -6 -427 -2 -388 6 -396 5 -403 -14 -10 -31
-81 -89 -118 -96 -54 -10 -108 10 -156 59 -37 38 -45 52 -49 94 -6 71 33 140
103 181 25 14 97 7 128 -14z m3183 -14 c104 -47 136 -192 58 -261 -78 -68
-166 -60 -245 21 l-49 50 -238 0 c-130 -1 -327 -4 -436 -8 -171 -5 -198 -4
-187 8 7 8 22 32 34 53 l22 39 406 -2 407 -2 10 29 c11 32 46 69 77 82 34 15
98 10 141 -9z m-6236 -3 c-8 -7 -20 -20 -28 -28 -12 -13 -13 -13 -6 0 12 25
26 40 37 40 6 0 5 -6 -3 -12z m231 -47 c-19 -24 -27 -42 -21 -46 5 -3 15 -3
20 0 13 8 13 -5 0 -25 -7 -12 -10 -12 -10 -1 0 7 -6 11 -15 7 -8 -3 -15 0 -15
7 -1 7 -6 5 -14 -5 -7 -10 -16 -15 -19 -12 -3 3 -13 -8 -22 -25 -8 -17 -20
-31 -25 -31 -16 0 -11 14 15 38 14 13 29 41 35 62 6 21 20 49 31 62 21 23 21
23 0 -16 -38 -67 -7 -61 36 7 15 23 28 36 31 29 2 -6 -10 -30 -27 -51z m49 14
c-7 -9 -15 -13 -18 -10 -3 2 1 11 8 20 7 9 15 13 18 10 3 -2 -1 -11 -8 -20z
m-680 11 c0 -2 -8 -10 -17 -17 -16 -13 -17 -12 -4 4 13 16 21 21 21 13z m290
-83 c-48 -76 -120 -176 -120 -167 0 4 14 29 31 55 17 27 27 54 23 60 -4 7 -3
10 2 7 5 -3 14 0 21 7 10 11 10 15 0 18 -8 4 -7 6 3 6 9 1 24 15 33 31 10 17
22 30 27 30 6 0 -4 -21 -20 -47z m370 43 c0 -3 -4 -8 -10 -11 -5 -3 -10 -1
-10 4 0 6 5 11 10 11 6 0 10 -2 10 -4z m-539 -39 c-10 -9 -11 -8 -5 6 3 10 9
15 12 12 3 -3 0 -11 -7 -18z m423 8 c-4 -8 -10 -15 -15 -15 -4 0 -6 7 -3 15 4
8 10 15 15 15 4 0 6 -7 3 -15z m-214 -11 c0 -8 -70 -104 -76 -104 -7 0 4 17
33 56 13 17 23 36 23 42 0 7 5 12 10 12 6 0 10 -3 10 -6z m124 -9 c-4 -8 -10
-15 -15 -15 -5 0 -9 -5 -9 -10 0 -20 -37 -52 -45 -40 -5 8 -15 4 -32 -12 -22
-20 -21 -17 8 30 34 55 46 63 30 19 -16 -41 2 -39 29 4 24 38 45 53 34 24z
m-354 -15 c0 -5 -5 -10 -11 -10 -5 0 -7 5 -4 10 3 6 8 10 11 10 2 0 4 -4 4
-10z m460 -18 c0 -5 -7 -17 -15 -28 -14 -18 -14 -17 -4 9 12 27 19 34 19 19z
m-89 -44 c-24 -39 -28 -30 -5 13 8 17 18 28 21 25 3 -3 -4 -20 -16 -38z m27
-12 c-7 -8 -15 -12 -17 -11 -5 6 10 25 20 25 5 0 4 -6 -3 -14z m-75 -21 c-3
-9 -8 -14 -10 -11 -3 3 -2 9 2 15 9 16 15 13 8 -4z m-193 -35 c-6 -11 -13 -20
-16 -20 -2 0 0 9 6 20 6 11 13 20 16 20 2 0 0 -9 -6 -20z m4132 -81 c-53 -53
-77 -69 -90 -64 -9 4 -94 9 -187 12 l-171 6 -99 -107 c-55 -59 -107 -118 -115
-132 -13 -22 -21 -24 -85 -24 l-70 0 -33 -70 c-45 -95 -88 -125 -183 -125 -59
0 -73 4 -110 30 -68 48 -100 101 -106 177 -6 72 12 121 64 170 62 59 185 78
251 38 33 -20 92 -102 92 -128 0 -11 8 -13 31 -8 17 3 44 6 59 6 22 0 38 14
84 75 32 41 90 101 129 135 l71 60 185 1 c103 1 211 4 241 9 125 17 124 19 42
-61z m-3562 41 c-6 -11 -13 -20 -16 -20 -2 0 0 9 6 20 6 11 13 20 16 20 2 0 0
-9 -6 -20z m40 1 c-5 -11 -15 -23 -21 -27 -6 -3 -3 5 6 20 20 30 30 35 15 7z
m5205 -26 c27 -20 93 -89 206 -217 20 -22 35 -27 96 -32 l73 -6 19 39 c29 56
97 119 138 127 103 19 184 -19 235 -112 68 -122 -3 -277 -145 -315 -88 -23
-174 25 -230 131 -24 45 -24 45 -73 42 -89 -5 -132 6 -149 38 -14 27 -161 179
-213 221 -21 16 -44 18 -189 18 -183 1 -165 -5 -216 71 l-17 27 217 -4 c211
-3 217 -3 248 -28z m-5159 0 c-9 -9 -16 -13 -16 -8 0 12 22 34 28 28 2 -2 -3
-11 -12 -20z m65 -18 c-10 -9 -11 -8 -5 6 3 10 9 15 12 12 3 -3 0 -11 -7 -18z
m199 -37 c0 -5 -5 -10 -11 -10 -5 0 -7 5 -4 10 3 6 8 10 11 10 2 0 4 -4 4 -10z
m11 -47 c-12 -20 -14 -14 -5 12 4 9 9 14 11 11 3 -2 0 -13 -6 -23z m-31 7 c0
-5 -5 -10 -11 -10 -5 0 -7 5 -4 10 3 6 8 10 11 10 2 0 4 -4 4 -10z m120 -24
c0 -8 -7 -19 -15 -26 -13 -11 -15 -10 -10 6 4 12 0 9 -9 -6 -13 -22 -15 -22
-16 -6 0 23 29 58 41 50 5 -3 9 -11 9 -18z m-180 -26 c-6 -11 -13 -20 -16 -20
-2 0 0 9 6 20 6 11 13 20 16 20 2 0 0 -9 -6 -20z m300 -14 c0 -2 -8 -10 -17
-17 -16 -13 -17 -12 -4 4 13 16 21 21 21 13z m310 -52 c0 -14 -4 -23 -10 -19
-5 3 -10 -2 -10 -12 0 -10 -11 -31 -25 -48 -27 -33 -34 -23 -9 13 9 13 13 26
10 29 -7 7 25 63 36 63 4 0 8 -12 8 -26z m-464 -12 c-17 -16 -18 -16 -5 5 7
12 15 20 18 17 3 -2 -3 -12 -13 -22z m333 -44 c-15 -30 -40 -58 -51 -58 -5 0
6 18 23 40 36 45 45 51 28 18z m87 -101 c-31 -34 -56 -66 -56 -72 -1 -11 -50
-74 -50 -63 0 7 41 77 95 163 18 28 38 61 46 75 l14 25 3 -33 c3 -27 -5 -42
-52 -95z m-60 8 c-36 -47 -43 -45 -8 4 15 21 29 37 31 35 2 -2 -8 -19 -23 -39z
m107 -47 c-20 -29 -54 -80 -75 -112 -21 -33 -38 -52 -38 -43 0 14 84 150 118
190 33 38 30 14 -5 -35z m-160 -53 c-3 -9 -8 -14 -10 -11 -3 3 -2 9 2 15 9 16
15 13 8 -4z m-8 -85 c-9 -16 -18 -30 -21 -30 -2 0 2 14 11 30 9 17 18 30 21
30 2 0 -2 -13 -11 -30z m28 -25 c-3 -9 -8 -14 -10 -11 -3 3 -2 9 2 15 9 16 15
13 8 -4z m-29 -55 c-10 -16 -19 -28 -21 -26 -6 6 20 56 29 56 5 0 1 -13 -8
-30z m-324 -93 c0 -2 -10 -12 -22 -23 l-23 -19 19 23 c18 21 26 27 26 19z
m260 -1 c0 -2 -8 -10 -17 -17 -16 -13 -17 -12 -4 4 13 16 21 21 21 13z m-50
-60 c0 -2 -8 -10 -17 -17 -16 -13 -17 -12 -4 4 13 16 21 21 21 13z m507 -78
c-26 -40 -87 -104 -81 -85 3 9 9 17 13 17 4 0 15 15 25 33 24 40 48 69 54 62
3 -2 -2 -15 -11 -27z m-842 -18 c-9 -16 -18 -30 -21 -30 -2 0 2 14 11 30 9 17
18 30 21 30 2 0 -2 -13 -11 -30z m794 -1301 c32 0 63 1 70 3 8 2 11 -107 10
-447 -1 -247 -1 -476 0 -507 l1 -58 -80 0 -80 0 0 511 c0 349 3 508 10 504 6
-4 37 -6 69 -6z m3205 0 c32 -12 175 -184 294 -354 31 -44 83 -114 117 -155
34 -41 77 -95 95 -120 l33 -45 -7 55 c-3 30 -6 123 -6 205 0 96 -4 145 -10
135 -7 -12 -12 -12 -29 4 -19 18 -37 20 -122 15 -15 -1 -35 1 -45 5 -17 7 -17
9 6 21 14 7 52 18 85 24 86 16 109 36 113 97 1 27 4 64 7 82 6 32 6 32 63 32
31 0 62 -4 68 -8 8 -5 9 -53 2 -172 -10 -176 -4 -483 13 -693 6 -71 9 -131 6
-133 -2 -3 -26 -7 -53 -10 l-50 -6 -80 103 c-45 57 -129 169 -188 249 -58 80
-123 165 -144 189 -20 24 -52 65 -70 90 -18 25 -38 46 -45 46 -18 0 -20 -123
-7 -409 6 -137 8 -251 6 -254 -3 -2 -31 -5 -63 -6 l-58 -1 -7 70 c-3 39 -11
185 -17 325 -13 289 -24 345 -69 354 -15 3 -54 6 -87 6 -33 1 -98 2 -145 3
-47 1 -102 -2 -122 -6 -33 -7 -39 -13 -48 -46 -6 -22 -11 -178 -13 -359 -1
-230 -5 -324 -14 -333 -11 -11 -100 -15 -111 -5 -3 3 -7 169 -10 368 -2 200
-5 364 -6 364 -8 8 -492 18 -503 11 -5 -3 -42 -2 -83 2 -72 7 -74 8 -45 20 32
13 265 16 382 4 76 -7 84 -8 168 -5 56 2 62 4 83 35 17 26 22 47 22 100 0 63
2 67 28 81 28 15 61 21 95 18 29 -3 37 -44 26 -138 -6 -58 -6 -91 0 -97 13
-13 181 12 181 26 0 5 7 4 15 -3 9 -7 26 -10 42 -6 16 4 37 8 48 10 74 13 105
28 111 52 4 16 9 21 14 14 4 -6 10 24 14 66 3 45 11 81 19 86 17 11 66 10 101
-3z m1754 4 l252 -5 0 -77 c0 -45 -5 -82 -11 -88 -9 -9 -51 -10 -145 -6 -130
6 -134 6 -134 -14 0 -14 8 -23 24 -27 29 -7 422 1 496 11 30 4 58 6 63 5 4 -1
7 19 7 46 0 26 3 71 6 100 l7 52 332 0 333 0 6 -22 c3 -13 6 -39 6 -59 l0 -36
73 5 c57 3 92 -1 170 -23 81 -22 193 -43 377 -71 14 -2 115 -6 225 -10 110 -3
216 -10 235 -14 39 -8 -9 -12 -355 -30 -195 -10 -328 -32 -420 -70 -37 -16
-41 -16 -135 -25 -42 -4 -103 -2 -140 4 -36 6 -112 18 -170 26 -58 8 -142 24
-187 35 -99 24 -203 36 -204 24 0 -5 -4 -46 -7 -92 l-7 -83 236 3 237 3 5 -68
c3 -38 3 -75 0 -83 -4 -12 -44 -14 -233 -14 l-227 0 -7 -46 c-3 -26 -6 -82 -6
-125 l0 -79 270 0 270 0 0 -86 0 -87 -337 6 -338 5 -8 38 c-5 22 -6 130 -3
240 3 111 3 263 -1 338 l-6 136 -295 0 -295 0 7 -374 7 -374 -68 -4 c-37 -2
-72 -1 -76 3 -11 9 -26 328 -27 565 l0 191 -30 -5 c-40 -6 -333 18 -343 27 -4
4 76 11 179 14 173 6 220 14 200 34 -4 4 -72 8 -150 8 l-143 0 -6 85 c-3 47
-4 88 -2 91 5 8 189 8 493 2z m-4412 -40 c34 -38 111 -139 313 -408 115 -155
189 -245 199 -245 9 0 2 412 -7 425 -4 5 -4 66 -1 135 l5 125 71 3 72 3 7
-173 c3 -95 5 -321 3 -503 l-3 -330 -60 -2 -60 -2 -70 80 c-38 44 -92 110
-120 147 -27 37 -104 137 -170 223 -66 86 -130 169 -141 185 -12 16 -25 26
-28 23 -3 -3 -6 -154 -7 -335 l0 -329 -73 3 -73 3 -6 226 c-4 125 -7 293 -7
375 0 82 -4 147 -8 144 -4 -2 -14 -1 -22 4 -12 7 -10 14 10 35 23 25 25 34 24
118 -1 59 3 95 10 99 6 4 33 8 60 8 44 0 52 -4 82 -37z m1729 -20 c-4 -32 -8
-73 -11 -92 l-5 -33 -52 6 c-29 3 -142 7 -252 8 l-200 3 -3 -33 c-3 -27 1 -34
25 -43 l28 -12 -27 -10 c-28 -11 -28 -12 -28 -98 l0 -87 61 -7 c33 -4 134 -4
225 0 l164 7 0 -76 0 -76 -230 0 -230 0 0 -159 c0 -87 -3 -179 -6 -205 l-7
-46 -67 0 -67 0 -7 148 c-4 81 -2 210 3 286 10 137 5 312 -9 321 -4 3 -28 6
-53 6 -25 1 -52 6 -59 11 -8 5 0 8 22 7 19 -1 49 1 66 5 37 8 44 33 44 154 l0
72 340 0 340 0 -5 -57z m1889 25 c3 -13 6 -43 6 -68 1 -25 7 -63 15 -85 27
-74 19 -638 -12 -804 l-6 -34 -70 7 c-39 4 -72 8 -73 9 -1 1 2 58 7 127 5 69
8 288 6 488 -2 407 -7 382 74 382 40 0 48 -3 53 -22z m-2772 -210 c-6 -6 -15
-8 -19 -4 -4 4 -1 11 7 16 19 12 27 3 12 -12z m-52 2 c0 -5 -5 -10 -11 -10 -5
0 -7 5 -4 10 3 6 8 10 11 10 2 0 4 -4 4 -10z m105 0 c-3 -5 -11 -10 -16 -10
-6 0 -7 5 -4 10 3 6 11 10 16 10 6 0 7 -4 4 -10z m2525 0 c11 -7 6 -10 -20
-10 -26 0 -31 3 -20 10 8 5 17 10 20 10 3 0 12 -5 20 -10z m-2943 -6 c-3 -3
-12 -4 -19 -1 -8 3 -5 6 6 6 11 1 17 -2 13 -5z m2473 -4 c0 -5 -4 -10 -10 -10
-5 0 -10 5 -10 10 0 6 5 10 10 10 6 0 10 -4 10 -10z m-541 -266 c9 -34 -12
-110 -23 -83 -4 9 -5 29 -2 45 2 16 5 40 5 53 1 30 9 24 20 -15z m13 -271 c14
-16 26 -69 43 -175 5 -34 3 -38 -20 -44 -41 -10 -74 3 -82 34 -11 45 -6 125
11 165 18 42 26 45 48 20z m-745 -474 c30 -10 31 -11 35 -97 3 -48 5 -148 4
-222 l-1 -135 -40 0 c-40 0 -40 0 -39 38 0 20 1 125 2 232 1 107 4 195 6 195
1 0 17 -5 33 -11z m1115 -25 c-2 -16 -6 -31 -8 -33 -2 -3 -57 -7 -120 -9
l-116 -5 7 -56 c4 -31 9 -58 11 -60 2 -2 46 -6 99 -9 l95 -5 0 -33 0 -34 -100
0 -100 0 0 -60 0 -60 121 0 120 0 -3 -32 -3 -33 -150 0 -150 0 -7 45 c-3 25
-7 126 -8 225 l-2 180 149 5 c81 3 153 5 158 4 6 0 9 -14 7 -30z m1069 24 c19
-6 44 -18 56 -26 21 -13 22 -16 8 -42 -21 -40 -31 -44 -54 -21 -23 23 -80 36
-117 27 -31 -8 -77 -52 -72 -68 8 -24 56 -48 125 -62 128 -26 170 -66 160
-153 -12 -113 -158 -157 -287 -87 -27 15 -57 35 -66 45 -15 16 -14 19 11 35
22 14 30 15 44 6 9 -7 36 -22 60 -33 99 -47 219 23 152 90 -11 11 -46 23 -86
30 -82 14 -114 30 -149 71 -88 106 65 240 215 188z m-2622 -11 c16 -20 104
-202 136 -282 15 -38 36 -87 46 -107 25 -48 24 -55 -6 -60 -28 -6 -43 8 -74
70 l-22 43 -97 -3 -97 -3 -25 -52 c-24 -50 -27 -53 -62 -53 -21 0 -38 3 -38 6
0 4 38 93 85 199 47 106 85 195 85 198 0 3 4 17 10 31 10 28 40 35 59 13z
m904 -1 c40 -17 78 -58 109 -116 18 -36 23 -61 23 -126 0 -72 -3 -84 -27 -116
-38 -50 -101 -76 -211 -88 -50 -5 -102 -10 -114 -10 l-23 0 0 183 c0 100 3
206 6 235 l7 52 99 0 c61 0 111 -5 131 -14z m1058 4 c20 -11 50 -70 121 -240
22 -52 51 -116 65 -143 27 -54 22 -67 -25 -67 -17 0 -27 12 -47 55 l-24 55
-106 0 -106 0 -22 -50 c-21 -47 -24 -50 -61 -50 -27 0 -37 4 -33 13 50 118
182 398 201 425 10 15 12 15 37 2z m-2491 -189 c0 -14 -10 -21 -36 -25 -19 -4
-303 -6 -630 -5 -566 2 -594 2 -594 20 0 13 9 19 38 22 20 2 304 4 630 5 574
2 592 1 592 -17z m4853 12 c44 -4 67 -10 67 -18 0 -9 -30 -15 -102 -20 -130
-9 -1214 -2 -1223 7 -4 4 -5 14 -2 23 6 13 74 15 599 15 326 0 623 -3 661 -7z"/>
<path d="M6774 9191 c-11 -5 -33 -24 -48 -42 -25 -29 -28 -39 -24 -86 13 -155
210 -162 235 -9 6 40 -18 98 -51 120 -30 19 -86 28 -112 17z"/>
<path d="M3391 9154 c-37 -31 -53 -85 -41 -137 11 -49 34 -74 81 -89 48 -14
87 1 129 49 94 107 -60 269 -169 177z"/>
<path d="M6036 9079 c-17 -14 -26 -30 -26 -49 0 -26 5 -31 40 -40 53 -14 80 0
80 40 0 31 -30 70 -54 70 -7 0 -25 -9 -40 -21z"/>
<path d="M4152 9083 c-18 -7 -52 -77 -44 -90 10 -15 48 -33 70 -33 45 0 82 86
50 118 -12 12 -52 15 -76 5z"/>
<path d="M7246 8699 c-63 -55 -58 -149 9 -208 41 -36 67 -39 112 -11 69 42 92
125 52 185 -26 38 -73 65 -113 65 -14 0 -41 -14 -60 -31z"/>
<path d="M2923 8700 c-46 -28 -66 -72 -61 -132 10 -96 77 -139 159 -102 100
44 107 173 13 235 -37 24 -71 24 -111 -1z"/>
<path d="M1651 7098 c-26 -45 -42 -93 -26 -77 10 11 64 123 60 127 -2 2 -17
-20 -34 -50z"/>
<path d="M1910 7110 c-6 -11 -7 -20 -2 -20 6 0 12 9 15 20 3 11 3 20 1 20 -2
0 -8 -9 -14 -20z"/>
<path d="M1694 7005 c-9 -14 -15 -28 -12 -30 2 -2 12 9 22 25 21 36 13 40 -10
5z"/>
<path d="M1870 6960 c-6 -11 -8 -20 -6 -20 3 0 10 9 16 20 6 11 8 20 6 20 -3
0 -10 -9 -16 -20z"/>
<path d="M1220 6778 c-12 -22 -12 -22 6 -6 10 10 15 20 12 24 -4 3 -12 -5 -18
-18z"/>
<path d="M1305 6769 c-4 -6 -5 -12 -2 -15 2 -3 7 2 10 11 7 17 1 20 -8 4z"/>
<path d="M1020 6669 c-7 -11 -10 -23 -7 -25 2 -2 9 7 15 21 14 30 7 33 -8 4z"/>
<path d="M1126 6674 c-9 -24 -2 -26 12 -4 7 11 8 20 3 20 -5 0 -12 -7 -15 -16z"/>
<path d="M910 6599 c0 -5 5 -7 10 -4 6 3 10 8 10 11 0 2 -4 4 -10 4 -5 0 -10
-5 -10 -11z"/>
<path d="M835 6509 c-4 -6 -5 -12 -2 -15 2 -3 7 2 10 11 7 17 1 20 -8 4z"/>
<path d="M1141 6502 c-7 -13 -11 -26 -8 -28 8 -8 29 25 25 38 -3 8 -9 4 -17
-10z"/>
<path d="M1241 6465 c-18 -25 -29 -45 -24 -45 4 0 14 10 22 23 8 12 21 32 29
45 26 40 6 23 -27 -23z"/>
<path d="M1277 6352 c-19 -20 -22 -32 -9 -32 5 0 14 11 20 25 14 30 11 31 -11
7z"/>
<path d="M1616 6300 l-18 -35 22 21 c12 12 20 28 18 35 -3 9 -12 0 -22 -21z"/>
<path d="M1817 6312 c-10 -10 -17 -22 -17 -27 0 -5 9 1 21 14 12 12 19 24 17
27 -3 2 -12 -4 -21 -14z"/>
<path d="M1690 6309 c0 -5 5 -7 10 -4 6 3 10 8 10 11 0 2 -4 4 -10 4 -5 0 -10
-5 -10 -11z"/>
<path d="M2605 5890 c3 -5 8 -10 11 -10 2 0 4 5 4 10 0 6 -5 10 -11 10 -5 0
-7 -4 -4 -10z"/>
<path d="M3458 7184 c-15 -8 -32 -23 -38 -34 -27 -50 8 -154 57 -166 48 -13
106 38 119 103 6 29 2 38 -34 73 -43 43 -62 47 -104 24z"/>
<path d="M926 7253 c-6 -14 -5 -15 5 -6 7 7 10 15 7 18 -3 3 -9 -2 -12 -12z"/>
<path d="M6761 7179 c-54 -50 -55 -114 -3 -169 43 -44 58 -48 105 -25 45 22
72 63 72 108 0 32 -7 45 -38 73 -45 41 -100 47 -136 13z"/>
<path d="M3532 6637 c-37 -39 -25 -99 22 -111 33 -8 51 0 65 30 16 36 14 61
-9 84 -26 26 -52 25 -78 -3z"/>
<path d="M6735 6628 c-45 -35 -21 -98 37 -98 27 0 68 37 68 62 0 41 -68 65
-105 36z"/>
<path d="M3469 6195 c-40 -22 -62 -76 -50 -123 20 -72 78 -104 137 -76 74 35
84 126 18 183 -38 34 -65 38 -105 16z"/>
<path d="M6772 6175 c-16 -13 -35 -38 -41 -54 -23 -53 39 -141 100 -141 56 0
115 103 90 157 -13 28 -67 63 -98 63 -12 0 -35 -11 -51 -25z"/>
<path d="M7720 4040 c0 -24 2 -24 175 -8 l130 13 -90 6 c-49 4 -118 7 -152 8
-57 1 -63 -1 -63 -19z"/>
<path d="M3810 2840 c0 -11 -14 -50 -30 -87 -17 -36 -28 -68 -26 -70 2 -2 35
-3 74 -1 l70 3 -36 88 c-35 85 -52 107 -52 67z"/>
<path d="M4575 2739 l0 -161 66 4 c120 9 164 50 163 152 -1 114 -54 166 -169
166 l-60 0 0 -161z"/>
<path d="M5745 2777 c-21 -45 -41 -85 -43 -89 -2 -5 34 -8 81 -8 l84 0 -36 90
c-19 50 -38 90 -41 90 -3 -1 -23 -38 -45 -83z"/>
</g>
</svg>
